<svg xmlns="http://www.w3.org/2000/svg" viewBox="0 0 744.27 366.34"><defs><style>.a{fill:#f2e900;}</style></defs><path d="M146.89 54.16l-1-.91-1-.9-.65-.59-.84-.77-1.06-1-.93-.83-.46-.4-.58-.49-1-.86-1.27-1.05-1.27-1.05-1-.86-.63-.45-.82-.75-.86-.78-.1-.11-.16-.2-.14-.2-.08-.11-.06-.05a1.84 1.84 0 0 0-.71-.38.64.64 0 0 0-.71.17l-.16.18a.79.79 0 0 1-.1.19q-.09.13-.21.3l-.23.3-.12.15-1.89 2.08v.14l1.43 1.3q3.59 3.26 7.17 6.41t7.1 6.41l.26.15.26.15a.11.11 0 0 0 .15 0l.12-.13.15-.16.31-.38.43-.53.41-.49.23-.28.43-.57a3 3 0 0 0 .35-.63 1.68 1.68 0 0 0 .12-.67 1.42 1.42 0 0 0-.24-.72zM171 21.92l.62.88 1.75 2.62.13.23.18.35.15.35v.09a2.45 2.45 0 0 0 .63.62l.1.06h.07l.16-.18a4.27 4.27 0 0 1 .37-.33l.31-.24.27-.21 2.1-1.4-1.16-1.76c-1-1.46-1.94-2.89-2.92-4.32l-2.07-3 4.69-.87 1.06-.18 3.12-.46h1.2a2.32 2.32 0 0 0 .76-.29l.09-.06v-.08c0-.07-.06-.14-.09-.22a3.9 3.9 0 0 1-.14-.49l-.08-.33c-.06-.26-.08-.36-.09-.39l-.37-2.5-2.07.31-4.09.63-4.1.64 1.55-3.83c.2-.5.34-.83.41-1l1.29-2.88.12-.24.2-.34.29-.46a2.32 2.32 0 0 0 .17-.8.8.8 0 0 0 0-.11h-.31l-.48-.14-.39-.14-.28-.1-2.33-1L171 2c-.57 1.27-1.12 2.53-1.67 3.78l-1.65 3.76-1.38-2c-1.45-2.14-2.94-4.35-4.39-6.56l-.23-.18-.33.26c-.19.16-.41.33-.64.49l-.58.43-.37.27-.54.46a2.07 2.07 0 0 0-.4.46 1.19 1.19 0 0 0-.16.48 1.31 1.31 0 0 0 .1.61c.09.11.26.38.61.91s.65 1 1 1.54l3.79 5.68-1.67.26c-2.91.45-5.93.92-8.91 1.34l-.26.09c0 .1.05.24.09.41s.12.51.18.78l.14.71c0 .23.07.37.08.43s.12.44.19.71a2.21 2.21 0 0 0 .25.56 1.18 1.18 0 0 0 .36.35 1.45 1.45 0 0 0 .64.17l1-.16 1.83-.26 6.31-.95-1.25 2.83c-.95 2.16-1.93 4.39-2.93 6.59a2.32 2.32 0 0 1-.06.27l.4.14.76.28.67.26.43.17h.13l.55.17a1.46 1.46 0 0 0 1.1 0 1.38 1.38 0 0 0 .46-.41c.05-.13.18-.43.45-1s.5-1.09.76-1.68l2.64-5.92zM137.64 83a3 3 0 0 1-.11-.38l-.06-.26c0-.2-.06-.28-.07-.3l-.29-2-1.62.24-3.2.49-3.21.5 1.21-3c.16-.39.27-.65.32-.77l1-2.25.1-.19.16-.26.23-.36a1.82 1.82 0 0 0 .13-.62.62.62 0 0 0 0-.09h-.24l-.37-.11-.3-.11-.22-.08-1.82-.81-.67 1.49c-.44 1-.87 2-1.3 3L126 80l-1.08-1.59c-1.13-1.67-2.3-3.4-3.44-5.13l-.15-.15-.26.2-.5.39-.45.34-.29.21-.42.36a1.63 1.63 0 0 0-.32.36.94.94 0 0 0-.13.38 1 1 0 0 0 .08.48c.07.09.2.29.47.71s.51.79.79 1.2l3 4.44-1.31.2c-2.28.35-4.63.72-7 1l-.2.07c0 .08 0 .19.07.32s.09.4.14.61l.11.55c0 .18.06.29.06.34l.15.55a1.73 1.73 0 0 0 .19.44.91.91 0 0 0 .28.27 1.13 1.13 0 0 0 .5.13l.81-.13 1.43-.2 4.94-.74-1 2.22c-.74 1.69-1.51 3.43-2.29 5.15a1.91 1.91 0 0 1-.05.21l.31.11.59.22.53.2.33.13h.1l.43.13a1.14 1.14 0 0 0 .86 0 1.07 1.07 0 0 0 .36-.32c0-.1.14-.33.35-.78l.6-1.31 2.12-4.57 1.89 2.62.48.69 1.37 2.05.1.18.14.27.12.27v.07a1.92 1.92 0 0 0 .49.49h.13l.13-.14a3.34 3.34 0 0 1 .29-.26l.24-.19.21-.16 1.7-1.09-.91-1.36c-.76-1.14-1.52-2.26-2.28-3.37l-1.62-2.38 3.67-.68.83-.14 2.44-.36h.94a1.81 1.81 0 0 0 .59-.22h.07v-.06a1.78 1.78 0 0 1-.09-.23zM242 80.66q0-.17-.12-.48t-.17-.66l-.15-.62-.08-.35q-.09-.33-.2-.69a2.94 2.94 0 0 0-.29-.66 1.68 1.68 0 0 0-.46-.5 1.42 1.42 0 0 0-.72-.24l-.86.15-1.32.24-1.32.25-.86.16-1.12.21-1.41.27-1.22.25-.6.13-.74.17-1.32.31-1.6.38-1.6.38-1.32.31-.74.17-1.09.21-1.15.22h-.86a1.84 1.84 0 0 0-.73.34.64.64 0 0 0-.29.67v.24a.8.8 0 0 1 .09.19 3.64 3.64 0 0 1 .11.35l.1.36v.19l.53 2.76.12.07 1.9-.36q4.77-.91 9.43-1.87t9.38-1.82l.28-.11.27-.11c.07 0 .09-.07.08-.13v-.18zm-17.84-37.51l.21-.21q.08-.08 0-.14l-.09-.13-.1-.15-.18-.32-.36-.45-.33-.43-.19-.24-.4-.46a2.17 2.17 0 0 0-.47-.4 1.4 1.4 0 0 0-.57-.2 1.5 1.5 0 0 0-.73.12l-.73.49-1.11.75-1.1.76-.72.5-.94.65-1.18.82-1 .72-.5.36-.61.45-1.08.81-1.32 1-1.32 1-1.08.81-.61.45-.92.63-1 .66-.13.07-.22.12-.22.1-.12.06h-.07a2.13 2.13 0 0 0-.55.58.55.55 0 0 0 0 .65l.12.17a.57.57 0 0 1 .14.11l.21.23.2.25.1.13 1.35 1.95h.13l1.59-1.1q4-2.76 7.87-5.52t7.85-5.46zm22.93-11.06l-3-1.2-3-1.2 2.57-2 .67-.5 2-1.43.18-.11.27-.15.38-.2a1.81 1.81 0 0 0 .43-.47v-.13l-.14-.12a3.56 3.56 0 0 1-.26-.28l-.21-.25-.15-.18-1.16-1.63-1.33.95-2.63 1.89-2.62 1.92-.09-1.93c-.12-2-.26-4.1-.36-6.16a1.59 1.59 0 0 1-.05-.21h-.33l-.63.08-.56.06h-.35l-.55.1a1.62 1.62 0 0 0-.46.15.94.94 0 0 0-.3.26 1 1 0 0 0-.18.45v.85s0 .94.07 1.44l.3 5.33-1.2-.42c-2.14-.85-4.36-1.73-6.54-2.64h-.21c0 .08-.06.18-.1.32s-.12.39-.19.6l-.19.53c-.06.17-.1.28-.12.32l-.15.55a1.72 1.72 0 0 0-.06.48.91.91 0 0 0 .1.38 1.14 1.14 0 0 0 .36.37l.76.3 1.33.55 4.61 1.85-2 1.41c-1.5 1.08-3 2.19-4.59 3.27l-.15.15.21.25q.2.23.4.49l.35.44.22.28.07.07.3.33a1.14 1.14 0 0 0 .75.42 1.08 1.08 0 0 0 .48-.1l.7-.49 1.18-.83 4.13-2.94.3 3.22c0 .42.06.7.07.84l.14 2.46v.89a1.92 1.92 0 0 0 .17.67v.08h.07l.18-.06.38-.07h.56l2-.11-.09-1.63c-.08-1.37-.16-2.72-.25-4.07l-.18-2.87 3.51 1.28.78.3 2.28.93.19.09c.16.08.36.2.51.3l.13.07a1.81 1.81 0 0 0 .63.11h.09v-.24a3 3 0 0 1 .1-.38l.08-.25c.06-.2.09-.27.1-.29l.74-1.83zM180 30.58a3.3 3.3 0 0 0-5.44 1.15 141.49 141.49 0 0 0-6.71 29.61c-1.4 11.22 5.28 18.21 12.27 19.08a11.88 11.88 0 0 0 1.47.09c5.72 0 11.86-4.12 13.07-13.76C197 48.13 180.72 31.29 180 30.58z" class="a"/><path d="M454.69 201.46c.06.29.22 1 .5 2.18s.58 2.49.89 3.93.63 2.82 1 4.21l.79 3.21A17.42 17.42 0 0 0 460 220a23.9 23.9 0 0 0 3.57 4.33l.14.17a7 7 0 0 0 .6.72c.33.36.68.72 1 1.09l1.77 1.77a3.78 3.78 0 0 1 .55.37 12.13 12.13 0 0 1 1 .84 36.77 36.77 0 0 0 3.69 2.09q2 1 4.29 2a15.21 15.21 0 0 0 2.3 1 14.52 14.52 0 0 0 2.31.61h1.19c.63 0 1.31.08 2 .14s1.37.11 2 .14h9.03c.18 0 .63 0 1.36-.09l2.54-.23 2.69-.28q1.28-.14 1.92-.23a22.28 22.28 0 0 0 3.18-.63 11.34 11.34 0 0 0 2.79-1.15 4.75 4.75 0 0 1 .53-.36q.34-.21.67-.47t.81-.56l.32-.21a12.86 12.86 0 0 1 2-1.11 1.45 1.45 0 0 0 .06-.49v-.51l-.59-1.12q-.51-1-1.08-2.11t-1.05-2q-.52-1-.72-1.34t-.7-1.22a10.59 10.59 0 0 0-1-1.32 5.55 5.55 0 0 0-1.1-1 1.72 1.72 0 0 0-1-.3 1.07 1.07 0 0 0-.38.11 5.05 5.05 0 0 1-.6.21l-.53.27-.95.49c-.36.2-.73.38-1.09.55a3.46 3.46 0 0 0-.4.2l-.2.2h-.18q-.72.18-1.85.54t-2.09.58h-4.22c-1.26 0-2.58 0-3.93-.14a28.14 28.14 0 0 1-4.05-.58 21.14 21.14 0 0 1-3.91-1.27 13.68 13.68 0 0 1-3.56-2.26 32.55 32.55 0 0 1-7.45-9.43 26.24 26.24 0 0 1-2.48-11.8v-4l.34-.17v-.14l.09-.47v-1.94c0-.36-.05-.61-.05-.75a19.51 19.51 0 0 1 .69-3.13 9.53 9.53 0 0 1 1.56-3.06c1.07-1.32 2.08-2.58 3-3.78a23.11 23.11 0 0 1 3.55-3.55 13.84 13.84 0 0 1 5.65-2.94c1.87-.46 3.82-.85 5.79-1.16a8.87 8.87 0 0 1 1.08-.29 6.35 6.35 0 0 1 1.24-.21h2.14a22.9 22.9 0 0 1 5.55.68 20.51 20.51 0 0 0 5 .62 1.41 1.41 0 0 0 .92-.34 6.72 6.72 0 0 0 1.13-1.18q.58-.76 1.07-1.52l.89-1.36c.18-.21.32-.4.54-.7l.89-1.17q.48-.62.9-1.14c.31-.38.53-.63.67-.77l.09-.21v-1.44l-1-.56-1.48-.88-1.43-.83a5.34 5.34 0 0 0-.75-.39l-.21-.1a3.44 3.44 0 0 0-1.55-.41 10.84 10.84 0 0 1-2.11-.32c-.64-.1-1.43-.24-2.24-.4a11.77 11.77 0 0 0-2.23-.22h-.94c-1-.06-2.49 0-3.85-.09h-1.63a63.36 63.36 0 0 0-7.65.41 27.54 27.54 0 0 0-7.14 2 50.19 50.19 0 0 1-5.7 3 41.16 41.16 0 0 0-6.86 4.09c-.76.72-1.72 1.64-2.76 2.69a23.75 23.75 0 0 0-2.59 3 3.9 3.9 0 0 0-.47.67l-1.4 2.42c-.2.35-.33.57-.39.69-.44.82-.83 1.56-1.16 2.23a9 9 0 0 0-.71 2c-.51 1.78-1 3.44-1.41 5a18.17 18.17 0 0 0-.62 4.81c0 1.77.06 3.55.18 5.28a48.74 48.74 0 0 0 .86 5.28zm148.93 28.88q-.45-1-.91-1.86c-.33-.63-.56-1.11-.69-1.44s-.39-.88-.81-1.75a11.41 11.41 0 0 1-.81-1.91c-.1-.29-.37-1-.8-2.11l-1.54-4q-.89-2.29-1.83-4.91t-1.81-4.91l-1.54-4.05q-.66-1.75-.85-2.32a90.22 90.22 0 0 0-4.4-9.29 68.61 68.61 0 0 1-4.35-9.68l-.38-1.2q-.27-.86-.64-1.87t-.67-1.95l-.37-1.15c-.07-.12-.32-.66-.7-1.48l-1.25-2.7q-.7-1.48-1.34-2.83t-.89-1.92c-.09-.12-.23-.33-.45-.7s-.53-.87-.81-1.38-.56-1-.86-1.45l-.75-1.23c-.29-.46-.61-.93-1-1.4a5.51 5.51 0 0 0-1.1-1.1.93.93 0 0 0-.53-.22q-.6 0-1.29.05-.48 0-2-.1t-3.22-.14q-1.79 0-3.3-.14t-1.8-.09h-2.4c-.07.18-.16.4-.28.66s-.3.68-.45 1-.32.75-.48 1.1l-.34.73-15 41.32c-.17.35-.44.87-.84 1.65l-.78 1.52-.8 2q-.65 1.63-1.39 3.53l-1.4 3.58c-.48 1.24-.64 1.7-.69 1.86a2.6 2.6 0 0 1-.35.91q-.22.4-.49.94c-.2.4-.4.76-.6 1.09s-.21.35-.29.46a4.41 4.41 0 0 1-.26.7c-.15.34-.32.72-.5 1.14l-.51 1.2c-.14.34-.24.6-.3.77l-.38 1.09q-.28.79-.6 1.75t-.61 1.78l-.37 1.06a8 8 0 0 1-1.07 1.9 2 2 0 0 0-.46 1v.13a26 26 0 0 1 6.15.82 23.36 23.36 0 0 0 6 .76c1.14 0 2 0 2.6-.09 0 0 .34-.11.8-1.21a6.43 6.43 0 0 1 .26-1c.16-.47.33-1 .52-1.51s.35-1 .51-1.47a9.6 9.6 0 0 1 .38-1q.09-.17.35-.79c.19-.43.39-.91.6-1.43s.41-1 .59-1.51.3-.81.36-1c.5-1 1-1.87 1.44-2.66a4.09 4.09 0 0 1 3-1.91 47.34 47.34 0 0 1 5.17-.67c1.72-.12 3.49-.19 5.24-.19h2.58q.68 0 1.45.15t1.3.14h.72q.76 0 2.57.1t3.69.14q2 0 3.71.14t2.41.09a2 2 0 0 1 .91.24 2.38 2.38 0 0 1 .63.42 6.6 6.6 0 0 1 1.59 3.52 12.77 12.77 0 0 0 .61 2.84s.2.41.51 1.1a7.11 7.11 0 0 0 .49 1l.17.26q.75 1.68 1.17 2.66c.26.61.64 1.39 1.15 2.36l.13.13a3.3 3.3 0 0 0 .83.27h1.11a8.57 8.57 0 0 0 2.54-.37 9.93 9.93 0 0 1 2.95-.46h7.54a4.62 4.62 0 0 0 .68-.08 5.16 5.16 0 0 0 .89-.23 1.81 1.81 0 0 0 .57-.33V233l-.52-1q-.54-.6-1.02-1.66zm-28.27-27.56l-.29.29c-.11.11-.25.26-.41.46a1.52 1.52 0 0 1-1.13.67h-16.17v-2.14q.84-2.62 1.5-4.45t1.3-3.67q.66-1.9 1.14-3l.22-.32c-.06 0 0-.12.11-.33.16-.38.34-.78.53-1.2l.51-1.11a5.86 5.86 0 0 1 .3-.6c0-.14.1-.31.18-.54s.28-.73.45-1.1.28-.64.4-.93a2.12 2.12 0 0 0 .12-.35 2 2 0 0 1 .22-.74 2.22 2.22 0 0 1 .44-.73l.78-.79 1.18 1.51q1.67 3.35 2.84 5.62T572 194q1.2 2.41 2 4l.78 1.79a5.62 5.62 0 0 1 .55 2.21zm103.24 27.36a16 16 0 0 1-1.28-1.51q-.84-1.08-1.73-2.25l-1.63-2.14c-.52-.68-.84-1.11-1-1.31a3.54 3.54 0 0 1-.45-.53q-.4-.49-.85-1l-.89-1a5.25 5.25 0 0 1-.6-.76q-1.1-1.38-2.2-2.85t-2.13-3.05c-.16-.17-.43-.49-.82-1s-.66-.79-.77-.91a2.62 2.62 0 0 1-.61-1.77 2.48 2.48 0 0 0-.19-.25c-.75-.94-1.5-1.85-2.24-2.75s-1.5-1.9-2.2-2.91l-.13-.12-1-.58a6.61 6.61 0 0 1-1.21-.84c-.13-.13-.5-.55-1.12-1.26s-1-1.2-1.28-1.52a12.35 12.35 0 0 1-.9-1.09q-.63-.82-1.25-1.78t-1.11-1.6a8.31 8.31 0 0 0-.73-.94l-.55-.55 1-1.68a10.47 10.47 0 0 1 .67-1c.95-1.2 2.17-2.76 3.69-4.72s3-3.89 4.46-5.81 2.75-3.61 3.87-5c1.52-1.94 1.89-2.36 2-2.51.32-.38 1-1.14 2-2.24l3-3.4 3-3.35 1.95-2.22a4.94 4.94 0 0 0 .55-.67q.3-.43.61-1c.2-.34.37-.67.51-1l.09-.22a2.54 2.54 0 0 0-1.71-.51 13.35 13.35 0 0 1-2.62-.15h-6.28q-1.24 0-2.62.14t-2.68.14h-1.34l-2 2.08a22.34 22.34 0 0 0-2 2.27l-5.22 7q-1.68 2.24-3.17 4.2t-2 2.74s-.2.38-.52 1-.48.87-.54 1l-.19.26a5.92 5.92 0 0 0-.49.65q-.42.62-.95 1.33l-1 1.34a11 11 0 0 1-.7.89 1.81 1.81 0 0 1-.34.44 1.26 1.26 0 0 1-.89.38h-1v-1.37c0-3.35.06-6.73.19-10s.19-6.65.19-10l-.08-3.3-3.63-.18c-1.05-.06-2.14-.11-3.28-.14s-2 0-2.72 0h-4.76a1.65 1.65 0 0 0-1.24.39 14.87 14.87 0 0 0-.7 1.52 5.94 5.94 0 0 0-.31 1.51v20.67q0 .64.09 3.08t.23 5.39l.28 5.68q.14 2.73.23 4.13v.77l.09 1.08c0 .34.07.67.13 1a5.67 5.67 0 0 1 .11.88v22.55l.14 3.46.16 3.64.16.09 1.81.12c.58 0 1.15.08 1.73.14a11.79 11.79 0 0 0 1.29.09H630q2.22 0 4.57-.09a17.06 17.06 0 0 0 4-.62 56.93 56.93 0 0 0 .4-6.76v-16.74s-.08-.93-.13-1.44l-.19-1.53c-.07-.56-.1-.92-.1-1.06v-2.6l1.54 1a7.72 7.72 0 0 1 1 .92l1 1c.07.12.27.41.61.89s.83 1.16 1.26 1.78l1.21 1.72a9.44 9.44 0 0 0 .64.85c.24.32.51.67.94 1.18l1.48 1.76q.77.91 1.5 1.69l.91 1a3.45 3.45 0 0 1 .61.91 4.05 4.05 0 0 0 .2.37l.29.29-.06.32s0 .12.11.3.12.3.16.41l1.49 1.49q.29.29 1.5 1.74l2.52 3q1.34 1.62 2.55 3t1.53 1.82c.46.57 1 1.19 1.6 1.82a3.84 3.84 0 0 0 1.66 1h7.86c.23 0 .67 0 1.31-.09s1.41-.11 2.14-.14 1.34-.07 1.95-.13 1.13-.1 1.4-.1a5.6 5.6 0 0 0 .57-.11h.07v-.61a4 4 0 0 0-.36-1.79 13.29 13.29 0 0 0-1.15-1.76zm65.48-10.91c-.46-.08-.75-.12-.87-.13h-24.29a1.83 1.83 0 0 1-1.87-1.24 8.43 8.43 0 0 1-.32-1.27c-.05-.19-.14-.76-.24-1.63s-.15-1.46-.15-1.79v-1.31c0-.4-.05-.8-.05-1.2v-5.73l.09-1.72q0-.92.15-1.74c.05-.47.09-.79.09-1v-1h4l4.56-.09q2.41 0 4.54-.14t3-.09c2.06-.12 4.54.06 6.43-.48a4 4 0 0 0 2-1.15 3.71 3.71 0 0 0 .67-2.5q0-.45-.09-1.94a28.18 28.18 0 0 0-.36-3.06 18.15 18.15 0 0 0-.7-2.82c-.27-.79-.51-.9-.51-.9l-6.72-1.3h-15.56l-2.38-1v-5c0-.08 0-.28.05-.62l.09-.91a10.59 10.59 0 0 1 .16-1.08 3 3 0 0 0 .07-.55l.25-1.39a4.14 4.14 0 0 1 .29-1.06 1.6 1.6 0 0 1 1.1-.78 3.66 3.66 0 0 1 1-.18l21.84-.84a2.64 2.64 0 0 0 .93-.48 1.67 1.67 0 0 0 .55-.48V160c-.06-.15-.19-.4-.36-.75s-.44-.85-.6-1.14h-.26q-.54-.09-1.93-.22l-3.11-.28q-1.66-.14-3.14-.23c-1-.06-1.63-.09-2-.09H721a7.81 7.81 0 0 1-2.19.37 46.74 46.74 0 0 1-6.67 0 13.23 13.23 0 0 1-2.07-.31l-.58.08c-.46.07-1 .11-1.47.15s-.91.07-1.32.13-.81.1-.88.1h-6.1a4.69 4.69 0 0 0-.63.63 1 1 0 0 0-.28.71v7.54q0 1.29.09 4t.23 6.14q.14 3.44.32 7.21t.33 7.18q.14 3.39.28 6.09t.23 4v.07l.09 31.72h.07a7.72 7.72 0 0 1 1 .48 3.42 3.42 0 0 1 .76.5l.21.16.3.06h1.01c2.09.25 4.07.46 6 .61s3.93.23 5.88.23a6.22 6.22 0 0 0 1.4-.16 8.5 8.5 0 0 1 1.95-.21c1.57 0 3.16.06 4.73.19s3 .18 4.48.18h1.86c.29 0 .92-.06 1.88-.18s2.17-.25 3.42-.37l3.58-.37 2.56-.28a13.88 13.88 0 0 0 1.76-.26 1.08 1.08 0 0 0 .62-.52v-1.12c0-.67.08-1.36.14-2.09s.11-1.37.14-2 0-1.06 0-1.3v-7.22zM49.24 169.7a14.4 14.4 0 0 0-1.17-1.5q-1-1.2-1.29-1.58a18.38 18.38 0 0 0-3.57-3.21 17.09 17.09 0 0 0-3.87-1.94 28.37 28.37 0 0 0-4.34-1.13l-5.07-.88c-2.26-.16-6.38-.3-10-.42l-4.54-.17c-3.57-.16-7.19-.23-10.76-.23H2.27a5.9 5.9 0 0 0-1.84.22 1.18 1.18 0 0 0-.07.17v4.39c0 3.51.08 7 .23 10.48s.23 10.26.23 13.89v2c0 .14 0 .5-.1 1.09s-.12 1.1-.18 1.75-.11 1.23-.14 1.77 0 .85 0 1v9.73c0 .54-.08 1.14-.14 1.81l-.18.93v7.22s.08.93.13 1.44.11 1.06.15 1.54 0 .82 0 1q0 .83.09 3t.14 4.63q0 2.41.14 4.54T.84 234l.11.37h.1a20.88 20.88 0 0 0 5.07-.62 23.28 23.28 0 0 1 5.64-.68h3.16l.28.23a1.24 1.24 0 0 0 .33.2v-29.32l2 1c0 .14.58.25.58.25h5.28l2.1-.1q1.09 0 2-.13c.67-.07 1.13-.1 1.4-.1l.61-.08a1.79 1.79 0 0 0 .53-.13c.6-.28 1.29-.53 2.22-.85s1.28-.45 1.43-.51.68-.29 1.29-.6 1.44-.71 2.26-1.08l2.33-1.07q1.1-.5 1.64-.78a12.51 12.51 0 0 0 4.28-3.37 19.52 19.52 0 0 0 2.92-4.87 27.65 27.65 0 0 0 1.6-5.69 76.1 76.1 0 0 0 .54-8.87c0-1.33-.06-2.68-.18-4a8.21 8.21 0 0 0-1.12-3.5zm-16.65 19a7.91 7.91 0 0 1-2.76 1.76 15.11 15.11 0 0 1-3.24.85 20.11 20.11 0 0 1-2.84.24s-4.58 0-5.28-.1-.94-.09-1.11-.09h-.86l-.13-.83q-.47-2.89-.89-5.84c-.3-2.11-.43-7.56-.43-9.38a1.77 1.77 0 0 1 1.56-1.92 11.25 11.25 0 0 1 1.48-.1 64.7 64.7 0 0 1 7.88.49 13.07 13.07 0 0 1 3.78 1.56 9.64 9.64 0 0 1 2.9 2.75c1.05 1.53 1.2 7.37 1.2 7.43a4.32 4.32 0 0 1-1.26 3.2zm78.74 30.3H87a1.83 1.83 0 0 1-1.87-1.24 8.4 8.4 0 0 1-.32-1.27c-.05-.19-.14-.76-.24-1.63s-.15-1.46-.15-1.79q0-.79 0-1.31t-.05-1.2v-5.73l.09-1.72q0-.92.15-1.74c.05-.47.09-.79.09-1v-1h4l4.56-.09q2.41 0 4.54-.14t3-.09c2.06-.12 4.54.06 6.43-.48a4 4 0 0 0 2-1.15 3.71 3.71 0 0 0 .67-2.5q0-.45-.09-1.94a28.18 28.18 0 0 0-.36-3.06 18.14 18.14 0 0 0-.7-2.82c-.27-.79-.51-.9-.51-.9l-6.74-1.29H85.94l-2.38-1v-5c0-.08 0-.28.05-.62l.09-.91a10.59 10.59 0 0 1 .16-1.08 3 3 0 0 0 .07-.55l.25-1.39a4.14 4.14 0 0 1 .29-1.06 1.6 1.6 0 0 1 1.1-.78 3.66 3.66 0 0 1 1-.18l21.84-.84a2.64 2.64 0 0 0 .93-.48 1.68 1.68 0 0 0 .55-.48v-10.63c-.06-.15-.19-.4-.36-.75s-.44-.85-.6-1.14h-.26q-.54-.09-1.93-.22l-3.11-.28q-1.66-.14-3.14-.23c-1-.06-1.63-.09-2-.09h-9.38a7.8 7.8 0 0 1-2.19.37 46.17 46.17 0 0 1-6.67 0 13.23 13.23 0 0 1-2.07-.31l-.58.08c-.46.07-1 .11-1.47.15s-.91.07-1.32.13-.81.1-.88.1h-6.1a4.7 4.7 0 0 0-.63.63 1 1 0 0 0-.28.71v7.54q0 1.29.09 4t.23 6.14q.14 3.44.32 7.21t.33 7.18q.14 3.39.28 6.09t.23 4v.07l.09 31.72h.07a7.71 7.71 0 0 1 1 .48 3.41 3.41 0 0 1 .76.5l.21.16.3.06h1.01c2.09.25 4.08.46 6 .61s3.93.23 5.88.23a6.22 6.22 0 0 0 1.4-.16 8.5 8.5 0 0 1 1.95-.21c1.57 0 3.16.06 4.73.19s3 .18 4.48.18h1.86c.29 0 .92-.06 1.88-.18s2.17-.25 3.42-.37l3.58-.37 2.56-.28a13.89 13.89 0 0 0 1.76-.26 1.08 1.08 0 0 0 .62-.52v-1.12c0-.67.08-1.36.14-2.09s.11-1.37.14-2 0-1.06 0-1.3v-7.22h-.19c-.3-.34-.59-.34-.72-.34zm192.32 6.68q-.55-1.1-1.05-2t-.72-1.34q-.26-.52-.7-1.22a10.59 10.59 0 0 0-1-1.32 5.55 5.55 0 0 0-1.1-1 1.72 1.72 0 0 0-1-.3s-.13 0-.38.11a5 5 0 0 1-.6.21l-.53.27-.95.49c-.36.2-.73.38-1.09.55a3.48 3.48 0 0 0-.4.2l-.2.2h-.18q-.72.18-1.85.54t-2.09.58h-4.22c-1.26 0-2.58 0-3.93-.14a28.14 28.14 0 0 1-4.05-.58 21.14 21.14 0 0 1-3.91-1.27 13.67 13.67 0 0 1-3.56-2.26 32.55 32.55 0 0 1-7.45-9.43 26.24 26.24 0 0 1-2.48-11.8v-4l.34-.17v-.14l.09-.47v-1.94c0-.36-.05-.61-.05-.75a19.52 19.52 0 0 1 .69-3.13 9.53 9.53 0 0 1 1.56-3.06c1.07-1.32 2.08-2.58 3-3.78a23.1 23.1 0 0 1 3.55-3.55 13.84 13.84 0 0 1 5.65-2.94c1.87-.46 3.82-.85 5.79-1.16a8.89 8.89 0 0 1 1.08-.29 6.35 6.35 0 0 1 1.24-.21h2.14a22.9 22.9 0 0 1 5.55.68 20.51 20.51 0 0 0 5 .62 1.41 1.41 0 0 0 .92-.34 6.71 6.71 0 0 0 1.13-1.18q.58-.76 1.07-1.52l.89-1.36c.18-.21.32-.4.54-.7l.89-1.17q.48-.62.9-1.14c.31-.38.53-.63.67-.77l.09-.21v-1.44l-1-.56-1.48-.88-1.43-.83a5.35 5.35 0 0 0-.75-.39l-.21-.1a3.44 3.44 0 0 0-1.55-.41 10.84 10.84 0 0 1-2.11-.32c-.64-.1-1.43-.24-2.24-.4A11.76 11.76 0 0 0 290 158h-.94c-1-.06-2.49 0-3.85-.09h-1.63a63.38 63.38 0 0 0-7.65.41 27.55 27.55 0 0 0-7.14 2 50.18 50.18 0 0 1-5.7 3 41.16 41.16 0 0 0-6.86 4.09c-.76.72-1.72 1.64-2.76 2.69a23.75 23.75 0 0 0-2.59 3 3.91 3.91 0 0 0-.47.67l-1.4 2.42q-.3.52-.39.69c-.44.82-.83 1.56-1.16 2.23a9 9 0 0 0-.71 2c-.51 1.78-1 3.44-1.41 5a18.17 18.17 0 0 0-.62 4.81c0 1.77.06 3.55.18 5.28a48.71 48.71 0 0 0 .64 5.16c.06.29.22 1 .5 2.18s.58 2.49.89 3.93.63 2.82 1 4.21l.79 3.21a17.42 17.42 0 0 0 2.2 5.06 23.9 23.9 0 0 0 3.57 4.33l.14.17a7 7 0 0 0 .6.72c.33.36.68.72 1 1.09L258 228a3.79 3.79 0 0 1 .55.37 12.2 12.2 0 0 1 1 .84 36.77 36.77 0 0 0 3.69 2.09q2 1 4.29 2a15.22 15.22 0 0 0 2.3 1 14.52 14.52 0 0 0 2.31.61h1.19c.63 0 1.31.08 2 .14s1.37.11 2 .14h9.03c.18 0 .63 0 1.36-.09l2.54-.23 2.69-.28q1.28-.14 1.92-.23a22.27 22.27 0 0 0 3.18-.63 11.34 11.34 0 0 0 2.79-1.15 4.75 4.75 0 0 1 .53-.36q.34-.21.67-.47t.81-.56l.32-.21a12.86 12.86 0 0 1 2-1.11 1.45 1.45 0 0 0 .06-.49v-.51l-.59-1.12q-.42-.95-.99-2.07zm22.48 8.32l.3.06h1.01c2.09.25 4.07.46 6 .61s3.93.23 5.88.23a6.21 6.21 0 0 0 1.4-.16 8.51 8.51 0 0 1 1.95-.21c1.57 0 3.16.06 4.73.19s3 .18 4.48.18h1.86c.29 0 .92-.06 1.88-.18s2.17-.25 3.42-.37l3.58-.37 2.56-.28a13.89 13.89 0 0 0 1.76-.26 1.08 1.08 0 0 0 .62-.52v-1.12c0-.67.08-1.36.14-2.09s.11-1.37.14-2 0-1.06 0-1.3v-7.22h-.19c-.46-.08-.75-.12-.87-.13h-24.16a1.83 1.83 0 0 1-1.87-1.24 8.42 8.42 0 0 1-.32-1.27c-.05-.19-.14-.76-.24-1.63s-.19-1.55-.19-1.92v-1.31c0-.4-.05-.8-.05-1.2v-5.73l.09-1.72q0-.92.15-1.74c.05-.47.09-.79.09-1v-1h4l4.56-.09q2.41 0 4.54-.14t3-.09c2.06-.12 4.54.06 6.43-.48a4 4 0 0 0 2-1.15 3.71 3.71 0 0 0 .67-2.5q0-.45-.09-1.94a28.18 28.18 0 0 0-.36-3.06 18.15 18.15 0 0 0-.7-2.82c-.27-.79-.51-.9-.51-.9l-6.74-1.29h-15.56l-2.38-1v-5c0-.08 0-.28.05-.62l.09-.91a10.59 10.59 0 0 1 .16-1.08 3 3 0 0 0 .07-.55l.25-1.39a4.14 4.14 0 0 1 .29-1.06 1.6 1.6 0 0 1 1.1-.78 3.66 3.66 0 0 1 1-.18l21.84-.84A2.64 2.64 0 0 0 365 171a1.67 1.67 0 0 0 .55-.48v-10.63c-.06-.15-.19-.4-.36-.75s-.44-.85-.6-1.14h-.26q-.54-.09-1.93-.22l-3.11-.28q-1.66-.14-3.14-.23c-1-.06-1.63-.09-2-.09h-9.48a7.8 7.8 0 0 1-2.19.37 46.17 46.17 0 0 1-6.67 0 13.24 13.24 0 0 1-2.07-.31l-.58.08c-.46.07-1 .11-1.47.15s-.91.07-1.32.13-.81.1-.88.1h-6.1a4.7 4.7 0 0 0-.63.63 1 1 0 0 0-.28.71v7.54q0 1.29.09 4t.23 6.14q.14 3.44.32 7.21t.33 7.18q.14 3.39.28 6.09t.23 4v.07l.09 31.72h.07a7.71 7.71 0 0 1 1 .48 3.42 3.42 0 0 1 .76.5zm-99.31.84a.83.83 0 0 0 0 .18zm-.46-56.74h-1.72q-2.2 0-4.62-.13t-4.59-.13h-2.19v-4.39c.18-9.71.26-21.75.26-31.64V136s-.45-1.46-1.58-1.42h-1.37q-2.2 0-4.62-.13t-4.59-.13h-12.86v-46.5c0-.26-.72-.29-.81-.29h-4.27V80.1a8.1 8.1 0 0 0 1-.32c3.14-1.33 5.25-4.54 5.79-8.81 1.58-12.67-9.48-24.11-10-24.59a2.4 2.4 0 0 0-4 .84 95.61 95.61 0 0 0-4.54 20.05c-.6 4.76.9 8.88 4.11 11.3a9.15 9.15 0 0 0 3.27 1.56v7.39h-1.32a1.81 1.81 0 0 0-.31 0c-1.37.06-3.51.62-3.51 1.49v45.19h-13.56q-2.18 0-4.59.13t-4.62.13a3.79 3.79 0 0 0-2.94 3.12v4.06c0 9.89.09 21.92.26 31.64v4.39h-2.19q-2.18 0-4.59.13t-4.62.13h-1.62c-1.12.11-1.32 1.94-1.32 1.94v5.2c0 9.89.09 19.82.26 29.53v1.72c.15 8.16.17 5.47.06 14.86l.4 3.33.39.2h.15l.72.2a3.73 3.73 0 0 0 .5.1h12a3.9 3.9 0 0 0 .38-.62c.14-.27.26-.54.36-.81a2.25 2.25 0 0 0 .11-.33c.47-3 .71-2.26.74-5.24v-4.1s-.07-1-.13-1.49-.11-1.09-.14-1.57 0-.81 0-.94v-8.33c0-.22 0-.7-.08-1.42a4.56 4.56 0 0 0-.17-1.15l-.1-.41v-16h3.37l7.45-.18q1.69 0 2.36-.12a11.56 11.56 0 0 1 1.61-.1c1.4 0 28.81 0 29.74-.08l.73-.06.91.06c1.2.12 2.46.06 3.29.18.43.05 1.22.1 2.35.12l7.45.18h3.37V209l-.1.2a4.59 4.59 0 0 0-.17 1.14c-.05.72-.08 1.2-.08 1.42v9.27s-.07 1-.14 1.57-.1 1-.13 1.49 0 .71 0 .82v3.26c0 3 .28 2.23.73 5.15a1.37 1.37 0 0 0 .12.41c.11.27.23.54.36.81a4.27 4.27 0 0 0 .38.62h11.95l.48-.1.72-.2h.15l.34-.16.41-3.47c-.12-9.27-.1-6.57 0-14.73v-1.72c.18-9.71.26-19.65.26-29.53v-6.09s-.71-1.06-1.1-1.06zM178.77 74.74c-1.8-1.36-2.62-3.87-2.24-6.87a101.89 101.89 0 0 1 3-14.88c2.84 3.83 6.79 10.55 5.93 17.39-.32 2.56-1.34 4.33-2.89 5a3.81 3.81 0 0 1-3.8-.64zM178.62 89c1.81-.16 3.66-.22 4.55.33a2.91 2.91 0 0 0 .54.27 2.44 2.44 0 0 0 .21.92 9.57 9.57 0 0 1 .35 1.42l-5.65 5.65zm0 15.39l5.84-5.84c-.16 2.46-.42 4.89-.5 6.88l-5.33 5.33zm0 14v-.82l5.3-5.3v6.37l-5.69 5.69c.18-2.18.39-4.28.39-5.91zm-.56 12.91l5.86-5.86v8.79h-5.34a12.66 12.66 0 0 1-.52-2.9zm20.09 36.23l-.1.2a4.59 4.59 0 0 0-.17 1.14c-.05.72-.08 1.2-.08 1.42v7.44h-33.87v-7.44c0-.22 0-.7-.08-1.42a4.56 4.56 0 0 0-.17-1.15l-.1-.41v-18.09h3.37l7.45-.18q1.69 0 2.36-.12c.8-.12 2.08-.06 3.27-.18l.75-.07.91.07c1.2.12 2.46.06 3.29.18.43.05 1.22.1 2.35.12l7.45.18h3.37zM135.11 46.08q3.59 3.26 7.17 6.4t7.09 6.4l.26.15.26.15a.11.11 0 0 0 .15 0l.12-.13.15-.16.31-.38.38-.51.41-.49.23-.28.43-.57a3 3 0 0 0 .35-.63 1.68 1.68 0 0 0 .12-.67 1.42 1.42 0 0 0-.24-.72l-.64-.6-1-.91-1-.9-.65-.59-.84-.77-1.06-1-.93-.83-.46-.4-.58-.49-1-.86-1.27-1.05-1.27-1.05-1-.86-.58-.49-.82-.75-.86-.78-.1-.11-.16-.2-.14-.2-.08-.11-.06-.05a1.84 1.84 0 0 0-.71-.38.64.64 0 0 0-.71.17l-.16.18a.8.8 0 0 1-.1.19q-.09.13-.21.3l-.23.3-.12.15-1.88 2.08v.14zm23.31-30.93l.14.71c0 .23.07.37.08.43s.12.44.19.71a2.21 2.21 0 0 0 .25.56 1.18 1.18 0 0 0 .36.35 1.45 1.45 0 0 0 .64.17l1-.16 1.83-.26 6.31-.95-1.22 2.84c-.95 2.16-1.93 4.39-2.93 6.59a2.31 2.31 0 0 1-.06.27l.4.14.76.28.67.26.43.17h.13l.55.17a1.46 1.46 0 0 0 1.1 0 1.38 1.38 0 0 0 .46-.41c.05-.13.18-.43.45-1s.5-1.09.76-1.68l2.64-5.92 2.42 3.35.62.88 1.75 2.62.13.23.18.35.15.35v.09a2.44 2.44 0 0 0 .63.62l.1.06h.07l.16-.18a4.28 4.28 0 0 1 .37-.33l.31-.24.27-.21 2.1-1.4-1.16-1.74c-1-1.46-1.94-2.89-2.92-4.32l-2.07-3 4.69-.87 1.06-.18 3.12-.46h1.2a2.32 2.32 0 0 0 .76-.29l.09-.06v-.08c0-.07-.06-.14-.09-.22a3.91 3.91 0 0 1-.14-.49l-.08-.33c-.06-.26-.08-.36-.09-.39l-.37-2.5-2.07.31-4.09.63-4.1.64 1.55-3.83c.2-.5.34-.83.41-1l1.29-2.88.12-.24.2-.34.29-.46a2.32 2.32 0 0 0 .17-.8.8.8 0 0 0 0-.11h-.31l-.48-.14-.39-.14L179 1l-2.33-1-.85 1.91c-.57 1.27-1.12 2.53-1.67 3.78l-1.65 3.76-1.38-2c-1.45-2.14-2.94-4.35-4.39-6.56l-.19-.19-.33.26c-.19.16-.41.33-.64.49l-.58.43-.37.27-.54.46a2.07 2.07 0 0 0-.4.46 1.19 1.19 0 0 0-.16.48 1.31 1.31 0 0 0 .1.61c.09.11.26.38.61.91s.65 1 1 1.54l3.77 5.66-1.67.26c-2.91.45-5.93.92-8.91 1.34l-.26.09c0 .1.05.24.09.41s.11.51.17.78zm78.84 62.14q0-.17-.12-.48t-.17-.66l-.15-.62-.08-.35q-.09-.33-.2-.69a2.94 2.94 0 0 0-.29-.66 1.68 1.68 0 0 0-.46-.5 1.42 1.42 0 0 0-.72-.24l-.86.15-1.32.24-1.31.25-.86.16-1.12.21-1.41.27-1.22.25-.6.13-.74.17-1.32.31-1.6.38-1.6.38-1.32.31-.74.17-1.09.21-1.15.22h-.86a1.84 1.84 0 0 0-.73.34.64.64 0 0 0-.29.67v.24a.8.8 0 0 1 .09.19q.06.15.11.35l.1.36v.19l.53 2.75.12.07 1.9-.36q4.77-.91 9.43-1.87T236.7 78l.28-.11.27-.11q.1 0 .08-.13v-.18zm-37.45-27.88a.57.57 0 0 1 .14.11l.21.23.2.25.1.13 1.35 1.95h.13l1.59-1.1q4-2.76 7.87-5.52t7.85-5.46l.21-.21.21-.21q.08-.08 0-.14l-.09-.13-.1-.15-.26-.33-.36-.45-.33-.43-.19-.24-.4-.46a2.17 2.17 0 0 0-.47-.4 1.4 1.4 0 0 0-.57-.2 1.5 1.5 0 0 0-.73.12l-.72.49-1.11.75-1.1.76-.72.5-.94.65-1.18.81-1 .72-.5.36-.61.45-1.08.81-1.32 1-1.32 1-1.08.81-.61.45-.91.63-1 .66-.13.07-.22.12-.22.1-.12.06h-.07a2.13 2.13 0 0 0-.55.58.55.55 0 0 0 0 .65zm-64.54 40.75l1.37 2.05.1.18.14.27.12.27V93a1.92 1.92 0 0 0 .49.49h.13l.13-.14a3.32 3.32 0 0 1 .29-.26l.24-.19.21-.16 1.64-1.1-.91-1.36c-.76-1.14-1.52-2.26-2.28-3.37l-1.62-2.38 3.67-.68.83-.14 2.44-.36h.94a1.81 1.81 0 0 0 .59-.22h.07V83a1.76 1.76 0 0 1-.07-.17 3 3 0 0 1-.11-.38l-.06-.26c0-.2-.06-.28-.07-.3l-.29-2-1.62.24-3.2.49-3.21.5 1.21-3c.16-.39.27-.65.32-.77l1-2.25.1-.19.16-.26.23-.36a1.83 1.83 0 0 0 .13-.62.62.62 0 0 0 0-.09h-.24l-.37-.11-.3-.11-.22-.08-1.82-.81-.67 1.49c-.44 1-.87 2-1.3 3l-1.29 2.94-1.08-1.59c-1.13-1.67-2.3-3.4-3.43-5.13l-.15-.15-.26.2-.5.39-.45.34-.29.21-.42.36a1.63 1.63 0 0 0-.32.36.94.94 0 0 0-.13.38 1 1 0 0 0 .08.48c.07.09.2.29.47.71s.51.79.79 1.2l3 4.44-1.31.2c-2.28.35-4.63.72-7 1l-.2.07c0 .08 0 .19.07.32s.09.4.14.61l.11.55c0 .18.06.29.06.34l.15.55a1.73 1.73 0 0 0 .19.44.92.92 0 0 0 .28.27 1.13 1.13 0 0 0 .5.13l.81-.13 1.43-.2 4.93-.74-1 2.21c-.74 1.69-1.51 3.43-2.29 5.15a1.93 1.93 0 0 1-.05.21l.31.11.59.22.53.2.33.13h.1l.43.13a1.14 1.14 0 0 0 .86 0 1.08 1.08 0 0 0 .36-.32c0-.1.14-.33.35-.78l.6-1.31 2.06-4.63 1.89 2.62zm104.11-62.63l-3-1.2 2.57-2 .67-.5 2-1.43.18-.11.27-.15.38-.2a1.81 1.81 0 0 0 .43-.47v-.13l-.14-.12a3.57 3.57 0 0 1-.26-.28l-.21-.25-.14-.17-1.17-1.64-1.33.95-2.63 1.92-2.6 1.88-.12-1.92c-.12-2-.26-4.1-.35-6.16a1.59 1.59 0 0 1-.05-.21h-.33l-.63.08-.56.06h-.35l-.55.1a1.62 1.62 0 0 0-.46.15.94.94 0 0 0-.3.26 1 1 0 0 0-.17.45v.85s0 .94.07 1.44l.3 5.33-1.23-.49c-2.14-.85-4.36-1.73-6.53-2.64L223 21c0 .08-.06.18-.1.32s-.12.39-.19.6l-.19.53c-.06.17-.1.28-.12.32l-.15.55a1.72 1.72 0 0 0-.06.48.91.91 0 0 0 .1.38 1.14 1.14 0 0 0 .36.37l.76.3 1.33.55 4.63 1.87-2 1.41c-1.5 1.08-3 2.19-4.59 3.27l-.15.15.21.25q.2.23.4.49l.35.44.22.28.07.07.3.33a1.14 1.14 0 0 0 .75.42 1.08 1.08 0 0 0 .48-.1l.7-.49 1.19-.79 4.13-3 .3 3.22c0 .42.06.7.07.84l.14 2.46v.89a1.92 1.92 0 0 0 .17.67v.08h.07l.18-.06.38-.07h.56l2-.11-.09-1.63c-.08-1.37-.16-2.72-.25-4.06l-.18-2.87 3.51 1.28.78.3 2.28.93.19.09c.16.08.36.2.51.3l.13.07a1.81 1.81 0 0 0 .63.11h.09v-.24a3 3 0 0 1 .1-.38l.08-.25c.06-.2.09-.27.1-.29l.74-1.83-1.52-.62zm155.09 186.65a7.69 7.69 0 0 0 6.7-3.64 12.78 12.78 0 0 0 1.48-3.31 14.35 14.35 0 0 0 .05-7.57q.71.31 1.43.59a31.27 31.27 0 0 0 3.31 1.09 12.21 12.21 0 0 0 3.29.47h.87a9.31 9.31 0 0 0 1-.2c.07 3 .2 6.11.4 9.26l.33 4.54a5.47 5.47 0 0 0-2.29 1.48 4.28 4.28 0 0 0-1.18 2.88 4 4 0 0 0 1.9 3.41 6.19 6.19 0 0 0 2.57.95c.14.87.27 1.74.39 2.6.17 1.18.39 2.36.66 3.5.41 2 .88 3.88 1.37 5.49a30.93 30.93 0 0 0 1.64 4.26c1.66 3.4 3.81 5.12 6.4 5.12a4.15 4.15 0 0 0 3.88-2.6 10.09 10.09 0 0 0 .78-4.36 22.53 22.53 0 0 0-.26-3.31c-.17-1.15-.42-2.36-.72-3.59s-.67-2.46-1.09-3.69a36.75 36.75 0 0 0-1.44-3.58 24.67 24.67 0 0 0-1.12-2.2q-.28-.5-.59-1c.81-.56 1.65-1.17 2.49-1.83 1.18-.92 2.38-1.92 3.55-3 1.34-1.22 2.61-2.5 3.78-3.78s2.27-2.6 3.26-3.89a31.39 31.39 0 0 0 4.6-8.46v-.07a2.31 2.31 0 0 0-.21-1.68 2.14 2.14 0 0 0-1.4-1.1 2.31 2.31 0 0 0-1.62.17 2.26 2.26 0 0 0-1.11 1.26v.08a22.86 22.86 0 0 1-3.62 6.79 51.24 51.24 0 0 1-6.73 7.41c-1.13 1-2.27 2-3.39 2.84-.84.65-1.66 1.23-2.44 1.74a8.54 8.54 0 0 0-3.59-2.11l-.33-4.57c-.11-2-.2-4-.25-5.92s-.1-3.58-.12-5.05c.23-.16.65-.48 1.49-1.13a30.52 30.52 0 0 0 3.61-3.43 34.25 34.25 0 0 0 4.06-5.52 24.34 24.34 0 0 0 2.94-7.52 27.63 27.63 0 0 0 .52-9.22 19.32 19.32 0 0 0-.93-3.88 10 10 0 0 0-1.74-3.08 5.78 5.78 0 0 0-4.57-2.32h-.05a5.69 5.69 0 0 0-4.25 2c-1.45 1.58-2.61 4.13-3.52 7.8a72 72 0 0 0-1.66 11.27c-.3 3.73-.45 7.88-.45 12.34v.31a2.69 2.69 0 0 1-1.61.51 9.46 9.46 0 0 1-2.8-.41 22.78 22.78 0 0 1-3.21-1.21c-1.08-.5-2.15-1-3.19-1.53-1.21-.58-2.26-1.07-3.13-1.45a7.87 7.87 0 0 0-2.46-.69 8.33 8.33 0 0 0-2.54-.39 6.87 6.87 0 0 0-3.58 1 8.22 8.22 0 0 0-2.68 2.67 12.85 12.85 0 0 0-1.88 7 13.74 13.74 0 0 0 2.08 7.6 8 8 0 0 0 6.92 3.86zm25 9.25l.87-.38a21.9 21.9 0 0 1 1.54 2.83 29.78 29.78 0 0 1 1.27 3.08c.38 1.08.71 2.18 1 3.27a31.9 31.9 0 0 1 .62 3.14 19.89 19.89 0 0 1 .21 2.76 8.68 8.68 0 0 1-.12 1.68 3.56 3.56 0 0 1-.2.72v.06a1.48 1.48 0 0 1-.9-.62 11.72 11.72 0 0 1-1.28-2 23.13 23.13 0 0 1-1.39-3.64c-.45-1.49-.87-3.18-1.27-5-.22-1.06-.42-2.16-.61-3.27-.13-.79-.26-1.58-.37-2.36zm-2.25-33.1c.07-1.89.17-3.72.28-5.4.22-2.75.5-5.12.83-7.06a41.77 41.77 0 0 1 1.06-4.78 18.1 18.1 0 0 1 1.1-2.93 7.17 7.17 0 0 1 1-1.54c.5-.57.88-.57 1-.57s.53 0 1.08.69a7.18 7.18 0 0 1 1 1.79 12.79 12.79 0 0 1 .69 2.76 19.37 19.37 0 0 1 .16 3.58 25.26 25.26 0 0 1-.57 4.25 19 19 0 0 1-1 3.34 24.56 24.56 0 0 1-3.17 5.51q-.89 1.16-1.71 2a24.54 24.54 0 0 1-1.79 1.79c-.07-1.17-.04-2.33.01-3.44zm-27.37 9.92a7.3 7.3 0 0 1 .79-2.12 4.6 4.6 0 0 1 1.28-1.45 2.79 2.79 0 0 1 1.7-.51 4.61 4.61 0 0 1 4 2.07 6.67 6.67 0 0 1 1.09 2.27 10.65 10.65 0 0 1 .38 2.83 10.41 10.41 0 0 1-.35 2.74 7.07 7.07 0 0 1-1 2.14 3.81 3.81 0 0 1-3.29 1.85 3.89 3.89 0 0 1-3.48-2 9.34 9.34 0 0 1-1.43-5.33 11.82 11.82 0 0 1 .28-2.5zM512 293.9a2.74 2.74 0 1 0 1.9.8 2.64 2.64 0 0 0-1.9-.8z"/><path d="M570.94 307.65a2.85 2.85 0 0 0-1.87.66 3.68 3.68 0 0 1-2.55 1 13 13 0 0 1-3.84-.56 30.73 30.73 0 0 1-4.38-1.66c-1.51-.7-3-1.4-4.34-2.09-1.66-.8-3.09-1.47-4.26-2a10.61 10.61 0 0 0-3.32-.93 11.26 11.26 0 0 0-3.44-.52 9.24 9.24 0 0 0-4.82 1.29 11.1 11.1 0 0 0-3.61 3.61 17.06 17.06 0 0 0-2.53 8.64l-.21 1c-.37 1.77-.84 3.82-1.4 6.07s-1.2 4.58-1.87 6.88a54.71 54.71 0 0 1-5 12.39 18.36 18.36 0 0 1-2.35 3 2.51 2.51 0 0 1-2.23.95c-1.6-.21-2.67-2.62-3.28-4.59a36.09 36.09 0 0 1-1.08-5.23 60 60 0 0 1-.5-6.89c-.06-2.19-.06-4.39 0-6.52s.14-4.07.25-5.72.27-3.38.48-5.34v-.19a2.64 2.64 0 0 0-1.71-3.4h-.12a2.78 2.78 0 0 0-2 .2 2.74 2.74 0 0 0-1.34 1.53c-.79 2.21-1.55 4.19-2.25 5.89s-1.58 3.73-2.59 5.94-2.14 4.5-3.39 6.81a60.52 60.52 0 0 1-8.57 12.53c-3.09 3.36-6 5.12-8.77 5.23-1.67 0-3.09-1.07-4.33-3.27a21.12 21.12 0 0 1-2.19-6.32 77.36 77.36 0 0 1-1.26-9.4v-.09a5.21 5.21 0 0 1-.07-.86V325l.26-.29a4.68 4.68 0 0 0 .67-.86c1.3-1.64 2.62-3.42 3.93-5.3s2.58-3.83 3.75-5.78 2.28-3.91 3.28-5.82 1.89-3.81 2.64-5.59c1.82-4.43 3.36-8.5 4.59-12.1a99.28 99.28 0 0 0 2.89-10c2-8.2 1.78-14-.55-17.66a9.35 9.35 0 0 0-7.61-4.4c-2.89-.2-5.53 1.6-7.83 5.33a42.61 42.61 0 0 0-3.41 7.08 87.46 87.46 0 0 0-3 9.55c-.91 3.51-1.74 7.36-2.45 11.44s-1.3 8.33-1.76 12.65c-.17 1.5-.32 3-.43 4.48q-.06.83-.12 1.67-.44-.55-.88-1.05a23.57 23.57 0 0 0-2.78-2.68 16.34 16.34 0 0 0-5.32-2.9 11 11 0 0 0-5.5-.28 11.58 11.58 0 0 0-7.56 5.78h-.06a2.94 2.94 0 0 0-1.08 1.66l-.27 1.24a23.55 23.55 0 0 0-1.23 5.34c-.35 1.44-.78 3-1.26 4.76-.59 2.09-1.26 4.25-2 6.39a48.51 48.51 0 0 1-5.51 11.71c-1.16 1.64-2.88 3.54-4.49 3.27a1.49 1.49 0 0 1-.69-.24 3.93 3.93 0 0 1-.76-.81c-1-1.33-1.64-3.64-2-6.87a68.67 68.67 0 0 1 0-12.48c.11-2 .28-3.83.51-5.57s.45-3.3.68-4.68c.22-1.55.45-3 .67-4.47a2.49 2.49 0 0 0-.42-2.05 2.89 2.89 0 0 0-1.68-1.15 2.37 2.37 0 0 0-2.08.43 3 3 0 0 0-1.09 1.66c-.4 1.65-.77 3.12-1.1 4.38s-.76 2.73-1.27 4.36-1.1 3.29-1.76 5c-.61 1.51-1.32 3-2.1 4.53a26.69 26.69 0 0 1-2.59 4.07 13.61 13.61 0 0 1-3 2.91 5.45 5.45 0 0 1-3.15 1 4.66 4.66 0 0 1-4.07-1.81v-.06a9.53 9.53 0 0 1-1.83-4.45 33.43 33.43 0 0 1-.41-7.33c.05-1.1.15-2.16.29-3.16s.27-1.93.38-2.71l.42-2.53a2.57 2.57 0 0 0-.35-2 2.74 2.74 0 0 0-1.66-1.2 2.64 2.64 0 0 0-.9-.07 2.66 2.66 0 0 0-1.63.34 2.57 2.57 0 0 0-1.24 1.65v.12c0 .18-.18.74-.57 2.23s-.95 3.57-1.62 6-1.5 5.28-2.47 8.43-2.05 6.39-3.23 9.65c-1.35 3.81-2.7 7.27-4 10.26a69.36 69.36 0 0 1-3.93 7.68 30 30 0 0 1-2.47 3.76 17.6 17.6 0 0 1-2.05 2.22 5.18 5.18 0 0 1-1.48 1 3.21 3.21 0 0 1-1.07.24 1.65 1.65 0 0 1-.4-.09 1.48 1.48 0 0 1-.52-.39 7.68 7.68 0 0 1-1.37-2.34 26.65 26.65 0 0 1-1.43-5.22 88.66 88.66 0 0 1-1.14-8.91c-.31-3.61-.5-8.1-.55-13.32 0-3.73 0-7.68.13-11.72.05-2.43.12-4.88.2-7.33.12-.34.23-.69.33-1a2.68 2.68 0 0 0-.22-1.91c0-.65 0-1.31.08-2 .17-4.1.37-8.18.6-12.11s.45-7.71.68-11.36c.12-2.25.22-4.26.3-6.16.07-1.55.15-3 .23-4.44l8.81 1.44c5.48 1 11.23 1.9 17.1 2.78a114.55 114.55 0 0 0 17 1.33h2.34s1.51-.07 2.24-.13c6.51-.41 11.84-1.86 15.82-4.32a20.12 20.12 0 0 0 9.33-12.82 2.8 2.8 0 0 0-2-3.34 2.57 2.57 0 0 0-2.06.34 2.73 2.73 0 0 0-1.2 1.66 15 15 0 0 1-6.33 9.28c-3.25 2.14-7.95 3.42-13.95 3.81a75.66 75.66 0 0 1-8.72 0c-3.07-.17-6.24-.45-9.41-.85s-6.45-.87-9.7-1.4l-9.58-1.59-9.46-1.56c.14-2.87.21-5.34.21-7.36a2.7 2.7 0 0 0-5.4 0c0 1.87-.07 4.08-.2 6.56-1.73-.22-3.41-.42-5-.59a54.73 54.73 0 0 0-5.55-.3 26 26 0 0 0-9.35 1.27 8.92 8.92 0 0 0-5.72 6.23 2.68 2.68 0 0 0 .27 2 2.57 2.57 0 0 0 1.64 1.24 2.76 2.76 0 0 0 2-.26 2.53 2.53 0 0 0 1.31-1.66 4.38 4.38 0 0 1 .52-1.18 3.36 3.36 0 0 1 1.29-1.05 10.58 10.58 0 0 1 2.92-.93 24.82 24.82 0 0 1 5.07-.28 50.92 50.92 0 0 1 5.23.29c1.63.17 3.33.37 5.09.6l-.55 11c-.23 3.72-.46 7.57-.68 11.45s-.43 8-.6 12.19q-.08 2-.15 3.92a12.74 12.74 0 0 1-1.45 2.49 20.39 20.39 0 0 1-3.74 3.73 49.2 49.2 0 0 1-4.77 3.22l-4.8 2.88a38.73 38.73 0 0 0-3.39-3c-1.38-1.09-2.8-2.16-4.22-3.19-1.8-1.29-3.56-2.64-5.25-4a27.17 27.17 0 0 1-4-4 38.38 38.38 0 0 0 3.9-11.63 27.93 27.93 0 0 0 .26-5.76 14.37 14.37 0 0 0-1-4.66 6.37 6.37 0 0 0-2-2.86 5.77 5.77 0 0 0-2.21-1.07 5.66 5.66 0 0 0-4.92 1.13c-2.56 2-3.8 5.82-3.8 11.72a25.31 25.31 0 0 0 5.25 16.07 34 34 0 0 0 5.06 5.19c1.79 1.48 3.66 2.9 5.55 4.22l3.66 2.81c.78.6 1.52 1.21 2.2 1.83-1.61.95-3.2 1.94-4.75 3a40.62 40.62 0 0 0-5.28 4.1c-4.59 4-6.91 8.67-6.91 13.73 0 4.35 1.67 7.49 5 9.32A11.75 11.75 0 0 0 341 357a17.22 17.22 0 0 0 8.54-2.36 17.83 17.83 0 0 0 6.5-6.5 19 19 0 0 0 2.7-10.09 22.54 22.54 0 0 0-1.08-6.66 21.18 21.18 0 0 0-2.09-4.42c1.51-.86 3-1.76 4.45-2.66a49.55 49.55 0 0 0 4.91-3.48c.59-.46 1.14-.93 1.67-1.4-.08 3.84-.12 7.61-.12 11.21a139.21 139.21 0 0 0 1.52 22.11c1 5.57 2.45 9.31 4.5 11.42a6.69 6.69 0 0 0 4.8 2.17h.1c4-.06 7.82-3.27 11.69-9.81a91.37 91.37 0 0 0 4.1-8.2c1.4-3.14 2.83-6.72 4.25-10.66 1.06-2.94 2-5.88 2.94-8.78a14.83 14.83 0 0 0 2.53 5.31 10.23 10.23 0 0 0 8.37 3.87c3.65 0 7-1.81 9.9-5.39a22.94 22.94 0 0 0 2.53-3.56l.28-.48v1c0 1.67.1 3.24.22 4.68.42 4.77 1.42 8.2 3.08 10.48a7.29 7.29 0 0 0 5.1 3.23h.42a3.65 3.65 0 0 0 .59.06c3.18 0 6.19-2 8.94-6.08a54.16 54.16 0 0 0 5.42-11.3 11.82 11.82 0 0 0 2.73 4.22 9.52 9.52 0 0 0 7 2.66 13.31 13.31 0 0 0 4.11-.87 22.1 22.1 0 0 0 3.94-2 34.62 34.62 0 0 0 3.74-2.73q1-.85 2-1.75c.7 6.39 2 11.32 3.86 14.67 1.43 2.48 2.94 4.07 4.63 4.85A10.59 10.59 0 0 0 484 351h.19c7.4-.12 14.58-6.86 21.95-20.59q1.27-2.32 2.36-4.58v3a48 48 0 0 0 1.75 13.61c1.6 5 4.23 7.86 7.81 8.37h.41a3.59 3.59 0 0 0 .59.06c3.2 0 6.19-2.23 8.88-6.63a62.54 62.54 0 0 0 5.56-13.54c.44-1.43.85-2.87 1.22-4.3a10.71 10.71 0 0 0 9.27 5.09 10.37 10.37 0 0 0 9-4.9 17.4 17.4 0 0 0 2-4.48 19.43 19.43 0 0 0 0-10.45c.7.31 1.41.61 2.13.89a42.57 42.57 0 0 0 4.49 1.48 16.51 16.51 0 0 0 4.45.63h1.17a10.19 10.19 0 0 0 5.29-2.28h.05a2.83 2.83 0 0 0 .84-1.88 2.54 2.54 0 0 0-.73-2 2.41 2.41 0 0 0-1.74-.85zm-237.15-11.54a28.45 28.45 0 0 1-1 4.33c-.23.72-.49 1.44-.77 2.16q-.32-1-.57-2a22.93 22.93 0 0 1-.53-5.16 22.33 22.33 0 0 1 .24-3.63 13.59 13.59 0 0 1 .55-2.26 3.9 3.9 0 0 1 .56-1.12l.42-.5a.59.59 0 0 1 .22 0h.1a.8.8 0 0 1 .18.17 2.42 2.42 0 0 1 .33.57 8.78 8.78 0 0 1 .6 3.1 21 21 0 0 1-.33 4.34zm18.83 46.75a13.73 13.73 0 0 1-1.75 3.46 11.72 11.72 0 0 1-2.16 2.32 15.39 15.39 0 0 1-1.87 1.32 11.55 11.55 0 0 1-4.88 1.66 6.58 6.58 0 0 1-4-.73c-1.5-.84-2.23-2.35-2.23-4.6 0-3.39 1.73-6.68 5.15-9.77a34.71 34.71 0 0 1 5-3.78c1.65-1 3.35-2.08 5.07-3.07a16.09 16.09 0 0 1 1.67 3.37 15 15 0 0 1 .8 5 14.35 14.35 0 0 1-.8 4.82zm110.8-13.09a12.84 12.84 0 0 1-6.13 2.48 4.26 4.26 0 0 1-3-1.09c-1.78-1.79-2.69-5.34-2.69-10.56a29 29 0 0 1 .17-3.21l.1-.39c.43-1.7.76-3.1 1-4.17l.06-.27a12.78 12.78 0 0 1 .69-1.46c1.11-2 2.45-3.06 4.11-3.36a5.46 5.46 0 0 1 1-.07 7.29 7.29 0 0 1 2.63.53 10.09 10.09 0 0 1 2.72 1.64 24.92 24.92 0 0 1 6.64 9.43V323a40.13 40.13 0 0 1-7.29 6.77zm12.95-18.51c.14-2.42.35-4.93.64-7.48.39-4 .94-8 1.61-11.8s1.45-7.52 2.29-10.95a84.35 84.35 0 0 1 2.87-9.28 36.73 36.73 0 0 1 3.07-6.4c1.29-2.06 2.26-2.78 2.78-2.78h.05a4 4 0 0 1 3.41 1.82 10 10 0 0 1 1 4.18A33.88 33.88 0 0 1 493 278a85.24 85.24 0 0 1-2.74 9.58c-1.21 3.52-2.71 7.45-4.46 11.69a76.94 76.94 0 0 1-4.85 9.53c-1.52 2.56-3.12 5.05-4.79 7.43.04-1.61.11-3.23.21-4.97zm73.63 9.33a9.66 9.66 0 0 1-1.31 2.94 5.27 5.27 0 0 1-4.56 2.56 5.38 5.38 0 0 1-4.8-2.78 12.81 12.81 0 0 1-2-7.3v-.58c.27-1.36.54-2.83.81-4.4a9 9 0 0 1 .62-1.32 6.33 6.33 0 0 1 1.77-2 3.88 3.88 0 0 1 2.36-.71 6.35 6.35 0 0 1 5.51 2.83 9.13 9.13 0 0 1 1.5 3.12 14.57 14.57 0 0 1 .52 3.88 14.28 14.28 0 0 1-.42 3.76z"/></svg>
